<svg width="250" height="250" viewBox="0 0 250 250" fill="none" xmlns="http://www.w3.org/2000/svg">
<circle cx="125" cy="125" r="125" fill="#23BB86" fill-opacity="0.5"/>
<path d="M184.667 75.0439C184.099 74.9854 183.526 74.9854 182.959 75.0439H66.2918C65.5441 75.0554 64.8013 75.1675 64.0835 75.3772L124.292 135.336L184.667 75.0439Z" fill="black"/>
<path d="M190.833 80.8355L130.167 141.252C128.605 142.804 126.493 143.675 124.292 143.675C122.09 143.675 119.978 142.804 118.417 141.252L58.2917 81.2939C58.1068 81.9732 58.0088 82.6732 58 83.3772V166.711C58 168.921 58.878 171.04 60.4408 172.603C62.0036 174.166 64.1232 175.044 66.3333 175.044H183C185.21 175.044 187.33 174.166 188.893 172.603C190.455 171.04 191.333 168.921 191.333 166.711V83.3772C191.3 82.5091 191.131 81.6515 190.833 80.8355ZM72.0417 166.711H66.25V160.752L96.5417 130.711L102.417 136.586L72.0417 166.711ZM182.917 166.711H177.083L146.708 136.586L152.583 130.711L182.875 160.752L182.917 166.711Z" fill="black"/>
</svg>
